<svg width="133" height="129" viewBox="0 0 133 129" fill="none" xmlns="http://www.w3.org/2000/svg">
<path d="M115.733 9.46669C111.6 13.6 110.4 13.7334 105.733 10.4C104 9.20002 103.067 9.20002 101.467 10.6667C99.4667 12.2667 99.4667 12.6667 102 15.3334C105.2 18.8 105.333 19.7334 102.533 22.8C100.533 25.0667 100 24.9334 93.4667 20.5334C79.2 10.9334 58.8 8.00002 41.7333 13.3334C7.46665 23.8667 -9.46668 62.9333 6.13332 95.6C14.1333 112.4 31.4667 125.067 50.6667 128.267C68.2667 131.2 88.6667 124.8 101.2 112.4C109.467 104.4 113.2 98.4 116.8 87.7333C120.8 75.7333 120 57.3333 114.8 46.1334L111.2 38.1334L114.533 34.8L117.867 31.4667L121.067 34.4C124 37.0667 124.267 37.2 126.4 35.0667C128.533 32.9334 128.4 32.6667 125.733 29.7334L122.933 26.8L127.867 21.3334C133.2 15.4667 133.733 12.8 130.533 8.26669C127.467 3.73335 120.933 4.26669 115.733 9.46669ZM102.8 51.2C108.933 57.3333 108.933 62.6667 102.8 68.8L98.2667 73.3333H60.8C34.6667 73.3333 22.4 72.8 20 71.7333C13.6 68.8 10.9333 60 14.5333 53.4667C18.1333 47.0667 20.1333 46.8 60.5333 46.6667H98.2667L102.8 51.2Z" fill="#fff"/>
<path d="M25.4667 54.8C23.6 56.2666 22 58.5333 22 59.8666C22 65.2 31.2 68.9333 35.0667 65.0666C37.2 62.9333 37.0667 56.6666 35.0667 55.0666C31.4667 52.2666 28.8 52.2666 25.4667 54.8Z" fill="#fff"/>
<path d="M84.9333 54.9333C82.9333 56.9333 82.9333 63.0667 84.9333 65.0667C87.7333 67.8667 93.7333 66.9333 96.1333 63.3333C98.1333 60.2667 98.1333 59.7333 96.1333 56.6667C93.7333 53.0667 87.7333 52.1333 84.9333 54.9333Z" fill="#fff"/>
</svg>
