<svg width="788" height="524" viewBox="0 0 788 524" fill="none" xmlns="http://www.w3.org/2000/svg">
<g clip-path="url(#clip0_309_254)">
<path d="M771.348 253.431C703.259 265.083 651.424 324.418 651.424 395.928C651.424 404.036 652.132 411.988 653.424 419.755C648.191 419.386 642.897 419.169 637.572 419.169C560.127 419.169 507.552 461.182 486.344 524H301.656C281.218 461.182 227.873 419.169 150.428 419.169C145.103 419.169 139.809 419.386 134.576 419.755C135.868 411.988 136.577 404.036 136.577 395.928C136.577 324.418 84.7408 265.083 16.6527 253.431C50.8506 224.735 72.613 181.674 72.613 133.497C72.613 77.922 43.6478 29.0974 0 1.41788C9.97316 0.462353 20.1001 0 30.3195 0C125.895 0 211.775 41.4885 270.967 107.513C251.575 138.675 240.094 177.42 240.094 219.402C240.094 283.33 265.298 341.509 307.289 373.273C321.172 383.775 335.435 380.591 343.913 372.337C352.618 363.86 352.609 348.361 342.872 338.197C312.353 306.324 298.301 289.002 299.286 244.123C299.625 227.848 305.874 212.405 314.831 199.275C309.998 198.751 304.95 196.9 300.332 192.555C285.712 178.745 288.267 155.998 288.421 154.857C301.718 171.132 323.511 177.143 342.903 170.793C343.365 170.454 343.826 170.146 344.289 169.807C313.723 147.49 321.11 112.29 321.387 111.026C332.099 137.596 357.955 154.272 385.689 154.087C415.886 150.45 439.033 162.81 439.033 162.81C439.033 162.81 445.558 149.802 445.558 130.291C445.558 130.291 461.719 145.981 473.508 172.705C481.634 191.106 482.897 209.353 493.331 221.652L508.383 236.109C512.292 239.838 512.354 246.095 508.476 249.887L489.729 268.443L491.607 252.475L454.024 233.642C458.179 244 469.722 269.367 469.722 269.367L481.357 274.391L466.766 279.847C461.411 281.82 455.409 280.278 451.685 275.963C442.973 265.792 415.485 233.458 414.039 231.701C404.404 219.895 382.981 217.737 373.377 236.664C366.604 250.041 375.439 262.092 379.132 266.346C397.109 287.059 460.734 313.877 495.794 359.372C527.929 325.25 548.214 275.192 548.214 219.402C548.214 177.297 536.671 138.491 517.217 107.297C576.409 41.4269 662.197 0 757.68 0C767.9 0 778.027 0.462353 788 1.41788C744.352 29.0974 715.388 77.922 715.388 133.497C715.388 181.674 737.149 224.735 771.348 253.431Z" fill="url(#paint0_linear_309_254)"/>
</g>
<defs>
<linearGradient id="paint0_linear_309_254" x1="-0.153899" y1="272.018" x2="788.154" y2="272.018" gradientUnits="userSpaceOnUse">
<stop stop-color="#FF5151"/>
<stop offset="1" stop-color="#FF8400"/>
</linearGradient>
<clipPath id="clip0_309_254">
<rect width="788" height="524" fill="white"/>
</clipPath>
</defs>
</svg>
