<?xml version="1.0" standalone="no"?>
<!DOCTYPE svg PUBLIC "-//W3C//DTD SVG 20010904//EN"
 "http://www.w3.org/TR/2001/REC-SVG-20010904/DTD/svg10.dtd">
<svg version="1.0" xmlns="http://www.w3.org/2000/svg"
 width="788.000000pt" height="788.000000pt" viewBox="0 0 788.000000 788.000000"
 preserveAspectRatio="xMidYMid meet">
<metadata>
Created by potrace 1.14, written by Peter Selinger 2001-2017
</metadata>
<g transform="translate(0.000000,788.000000) scale(0.100000,-0.100000)"
fill="#000000" stroke="none">
<path d="M20 6551 c-24 -7 -23 -8 24 -40 272 -187 491 -478 595 -789 61 -182
75 -276 75 -497 0 -169 -4 -216 -22 -302 -71 -326 -218 -595 -450 -821 -41
-40 -73 -75 -70 -78 3 -3 41 -13 84 -24 243 -58 468 -180 647 -350 176 -167
298 -354 376 -573 56 -159 74 -272 75 -462 1 -93 -2 -189 -7 -212 l-7 -43 154
0 c482 0 864 -146 1156 -440 140 -141 259 -329 335 -527 l28 -73 927 0 927 0
37 93 c83 207 201 382 363 537 288 276 650 409 1116 410 l157 0 -7 43 c-5 23
-8 119 -7 212 0 190 19 302 75 462 94 265 273 510 498 678 146 110 406 230
545 250 76 12 75 16 -21 111 -621 615 -617 1612 8 2226 43 42 117 105 165 139
l87 64 -39 8 c-21 5 -163 7 -314 4 -322 -4 -474 -23 -745 -92 -583 -148 -1085
-435 -1514 -869 l-105 -105 28 -48 c130 -226 218 -485 262 -768 23 -151 23
-470 0 -620 -65 -414 -217 -758 -464 -1045 l-30 -35 -66 72 c-185 200 -295
288 -691 551 -414 276 -488 350 -488 493 -1 138 128 253 262 235 85 -12 115
-39 336 -298 122 -144 223 -253 242 -262 17 -9 46 -16 65 -15 66 1 235 77 176
80 -7 0 -33 10 -56 22 -42 21 -46 27 -117 187 -40 91 -72 166 -70 168 2 3 344
-165 353 -173 1 -1 -1 -36 -6 -76 -5 -41 -8 -76 -6 -78 6 -7 185 164 205 195
36 59 28 77 -85 193 -60 62 -114 127 -129 158 -15 28 -54 133 -87 234 -59 180
-112 293 -193 414 -48 71 -139 184 -149 184 -5 1 -8 -17 -8 -38 0 -52 -28
-194 -47 -243 -12 -30 -20 -37 -32 -32 -148 64 -265 84 -470 83 -137 -1 -166
2 -236 23 -103 30 -199 84 -275 154 -60 56 -139 165 -160 219 -33 87 -42 -116
-10 -239 27 -105 73 -187 147 -262 34 -35 59 -65 55 -68 -4 -2 -36 -10 -71
-16 -145 -26 -310 25 -418 129 -23 23 -45 41 -49 41 -16 0 4 -187 27 -243 36
-93 144 -197 204 -197 8 0 15 -3 15 -6 0 -3 -23 -51 -50 -107 -71 -143 -90
-228 -90 -395 0 -301 76 -491 294 -732 169 -188 185 -208 202 -267 45 -156
-63 -292 -232 -293 -78 0 -151 35 -249 120 -309 269 -515 689 -580 1183 -17
135 -20 409 -5 542 29 250 104 501 218 728 l75 149 -109 110 c-535 540 -1229
872 -1983 948 -113 11 -561 12 -601 1z"/>
</g>
</svg>
